# xmcd CD database file
#
# Track frame offsets:
#	150
#	20082
#	41635
#	58290
#	77772
#	100435
#	123617
#	144855
#	162837
#	182550
#	208740
#
# Disc length: 3069 seconds
#
# Revision: 0
# Processed by: cddbd v1.5.2PL0 Copyright (c) Steve Scherf et al.
# Submitted via: CDex 1.70beta2
#
DISCID=9c0bfb0b
DTITLE=Gerald Albright - Groovology
DYEAR=2002
DGENRE=Jazz
TTITLE0=Old School Jam
TTITLE1=Groovology
TTITLE2=Bring A Li'l Love
TTITLE3=Ain't No Stoppin'
TTITLE4=Change The World
TTITLE5=I Will Always Love You
TTITLE6=The Next Level
TTITLE7=I Need You
TTITLE8=Don't Hold Back
TTITLE9=We Fall Down
TTITLE10=I'll Be There For You
EXTD=YEAR: 2002
EXTT0=
EXTT1=
EXTT2=
EXTT3=
EXTT4=
EXTT5=
EXTT6=
EXTT7=
EXTT8=
EXTT9=
EXTT10=
PLAYORDER=
